<svg id="Component_7_4" data-name="Component 7 – 4" xmlns="http://www.w3.org/2000/svg" xmlns:xlink="http://www.w3.org/1999/xlink" width="427.099" height="70.9" viewBox="0 0 427.099 70.9">
  <defs>
    <linearGradient id="linear-gradient" x1="0.5" x2="0.5" y2="1" gradientUnits="objectBoundingBox">
      <stop offset="0" stop-color="#f57474"/>
      <stop offset="1" stop-color="#f21649"/>
    </linearGradient>
  </defs>
  <path id="Path_1489" data-name="Path 1489" d="M-1851.144,1040.4a8.648,8.648,0,0,1-2.578,6.357,8.621,8.621,0,0,1-6.35,2.583,8.62,8.62,0,0,1-6.349-2.583A8.654,8.654,0,0,1-1869,1040.4a8.663,8.663,0,0,1,2.578-6.358,8.618,8.618,0,0,1,6.349-2.583,8.619,8.619,0,0,1,6.35,2.583A8.657,8.657,0,0,1-1851.144,1040.4Z" transform="translate(2278.243 -978.441)" fill="url(#linear-gradient)"/>
  <g id="Group_5295" data-name="Group 5295">
    <path id="Path_1491" data-name="Path 1491" d="M486.24,308.807a6.881,6.881,0,0,0-4.547,1.465,5.215,5.215,0,0,0-1.775,4.251,6.113,6.113,0,0,0,1.645,4.453,10.762,10.762,0,0,0,4.287,2.605q2.641.909,5.889,1.725a66.375,66.375,0,0,1,6.452,1.992,28.336,28.336,0,0,1,5.846,2.908,12.69,12.69,0,0,1,4.287,4.886,16.233,16.233,0,0,1,1.646,7.585,16.971,16.971,0,0,1-6.279,13.2q-6.279,5.5-16.542,5.5t-16.542-4.937q-6.28-4.937-6.279-14.03h15.762q.606,7.275,7.448,7.275A7.063,7.063,0,0,0,492.563,346a5.579,5.579,0,0,0,1.819-4.28,5.761,5.761,0,0,0-1.645-4.251,11.535,11.535,0,0,0-4.288-2.6q-2.641-.953-5.889-1.776a59.477,59.477,0,0,1-6.452-2.028,31.987,31.987,0,0,1-5.846-2.908,12.374,12.374,0,0,1-4.287-4.85,16,16,0,0,1-1.645-7.491,16.619,16.619,0,0,1,6.322-13.6q6.322-5.11,16.152-5.11t15.892,4.467q6.062,4.46,6.322,14.066H492.909a8.137,8.137,0,0,0-2.122-5.066A6.179,6.179,0,0,0,486.24,308.807Z" transform="translate(-464.329 -290.093)" fill="#171722"/>
    <path id="Path_1492" data-name="Path 1492" d="M495.64,344.871h5.283v12.558h-7.535q-8.141,0-12.6-3.594t-4.467-12.342V321.4h-4.5V309.11h4.5V297.324h14.817V309.11h9.693V321.4h-9.693v20.093Q491.137,344.871,495.64,344.871Z" transform="translate(-417.781 -288.75)" fill="#171722"/>
    <path id="Path_1493" data-name="Path 1493" d="M510.456,298.957h14.81v48.32h-14.81v-7.1q-4.6,7.632-14.644,7.622a17.528,17.528,0,0,1-13.46-5.536q-5.153-5.554-5.161-15.077V298.957h14.723v26.235q0,4.677,2.476,7.232a10.313,10.313,0,0,0,13.59,0q2.479-2.555,2.476-7.232Z" transform="translate(-384.357 -278.597)" fill="#171722"/>
    <path id="Path_1494" data-name="Path 1494" d="M491.563,354.539q-6.4-6.929-6.4-17.754t6.4-17.79a20.441,20.441,0,0,1,15.633-6.979q9.224,0,14.16,6.849V296.772h14.817v64.089H521.355v-7.015a16.731,16.731,0,0,1-14.369,7.621A20.253,20.253,0,0,1,491.563,354.539Zm26.588-9.007c2.137-2.079,3.2-5.016,3.2-8.834s-1.068-6.734-3.2-8.791a10.3,10.3,0,0,0-14.723.043c-2.136,2.078-3.2,5.03-3.2,8.834s1.061,6.741,3.2,8.79a10.341,10.341,0,0,0,7.362,3.074A10.231,10.231,0,0,0,518.151,345.532Z" transform="translate(-334.811 -292.182)" fill="#171722"/>
    <path id="Path_1495" data-name="Path 1495" d="M508.651,311.033a8.7,8.7,0,1,1,0-12.385,8.872,8.872,0,0,1,0,12.385Zm-13.511,53.783V316.5h14.817v48.319Z" transform="translate(-280.796 -296.136)" fill="#171722"/>
    <path id="Path_1496" data-name="Path 1496" d="M504.725,341.5q-7.329-6.853-7.326-18.021t7.282-17.884a25.559,25.559,0,0,1,18.007-6.712q10.74,0,17.978,6.712,7.221,6.723,7.224,17.884T540.7,341.5a25.005,25.005,0,0,1-17.921,6.835A25.441,25.441,0,0,1,504.725,341.5Zm25.152-8.928c1.963-2.079,2.952-5.074,2.952-9.007s-1.017-6.914-3.031-8.957a9.759,9.759,0,0,0-7.188-3.082,9.613,9.613,0,0,0-7.152,3.082q-2.988,3.064-2.988,8.957c0,3.934,1.025,6.929,3.082,9.007a9.805,9.805,0,0,0,7.231,3.118A9.412,9.412,0,0,0,529.878,332.574Z" transform="translate(-258.719 -279.051)" fill="#171722"/>
    <path id="Path_1497" data-name="Path 1497" d="M512.554,341.5q-7.318-6.853-7.318-18.021t7.282-17.884a25.56,25.56,0,0,1,18.007-6.712q10.739,0,17.971,6.712t7.232,17.884q0,11.172-7.188,18.021a25.01,25.01,0,0,1-17.928,6.835A25.467,25.467,0,0,1,512.554,341.5Zm25.16-8.928c1.963-2.079,2.952-5.074,2.952-9.007s-1.018-6.914-3.031-8.957a9.759,9.759,0,0,0-7.189-3.082,9.611,9.611,0,0,0-7.152,3.082q-2.988,3.064-2.988,8.957c0,3.934,1.025,6.929,3.075,9.007a9.828,9.828,0,0,0,7.231,3.118A9.417,9.417,0,0,0,537.714,332.574Z" transform="translate(-210.001 -279.051)" fill="#171722"/>
    <path id="Path_1498" data-name="Path 1498" d="M520.39,341.5q-7.319-6.853-7.318-18.021t7.282-17.884a25.535,25.535,0,0,1,18.007-6.712q10.739,0,17.971,6.712t7.231,17.884q0,11.172-7.188,18.021a25.01,25.01,0,0,1-17.927,6.835A25.466,25.466,0,0,1,520.39,341.5Zm25.159-8.928c1.963-2.079,2.944-5.074,2.944-9.007s-1.01-6.914-3.024-8.957a9.762,9.762,0,0,0-7.2-3.082,9.61,9.61,0,0,0-7.146,3.082q-2.988,3.064-2.988,8.957c0,3.934,1.025,6.929,3.075,9.007a9.83,9.83,0,0,0,7.232,3.118A9.417,9.417,0,0,0,545.55,332.574Z" transform="translate(-161.282 -279.051)" fill="#171722"/>
  </g>
</svg>
